<mxfile host="65bd71144e">
    <diagram id="L6u5ZsnRD2cr0GQQfAAO" name="Page-1">
        <mxGraphModel dx="-3943" dy="1216" grid="1" gridSize="10" guides="1" tooltips="1" connect="1" arrows="1" fold="1" page="1" pageScale="1" pageWidth="1100" pageHeight="850" math="0" shadow="0">
            <root>
                <mxCell id="0"/>
                <mxCell id="1" parent="0"/>
                <mxCell id="mbZG72ivIFh6wl5bEpDP-8" value="C0" style="whiteSpace=wrap;html=1;aspect=fixed;fillColor=#d5e8d4;strokeColor=#000000;strokeWidth=3;fontSize=50;fontStyle=1" parent="1" vertex="1">
                    <mxGeometry x="4841.27" y="-573.8499999999999" width="140" height="140" as="geometry"/>
                </mxCell>
                <mxCell id="mbZG72ivIFh6wl5bEpDP-9" value="" style="rounded=0;whiteSpace=wrap;html=1;fontSize=50;fontColor=#000000;strokeColor=#000000;strokeWidth=6;fillColor=#000000;" parent="1" vertex="1">
                    <mxGeometry x="4896.27" y="-434.15999999999997" width="30" height="11" as="geometry"/>
                </mxCell>
                <mxCell id="mbZG72ivIFh6wl5bEpDP-11" value="RAG" style="ellipse;whiteSpace=wrap;html=1;aspect=fixed;sketch=0;fillColor=#d5e8d4;strokeColor=#82b366;" parent="1" vertex="1">
                    <mxGeometry x="4851.77" y="-546.16" width="30" height="30" as="geometry"/>
                </mxCell>
                <mxCell id="mbZG72ivIFh6wl5bEpDP-12" value="" style="endArrow=none;dashed=1;html=1;dashPattern=1 3;strokeWidth=1;exitX=0.5;exitY=0;exitDx=0;exitDy=0;jumpSize=0;" parent="1" source="mbZG72ivIFh6wl5bEpDP-11" edge="1">
                    <mxGeometry width="50" height="50" relative="1" as="geometry">
                        <mxPoint x="4951.77" y="-495.15999999999997" as="sourcePoint"/>
                        <mxPoint x="4831.77" y="-585.16" as="targetPoint"/>
                    </mxGeometry>
                </mxCell>
                <mxCell id="mbZG72ivIFh6wl5bEpDP-13" value="" style="endArrow=none;dashed=1;html=1;dashPattern=1 3;strokeWidth=1;exitX=0.5;exitY=0;exitDx=0;exitDy=0;jumpSize=0;" parent="1" source="mbZG72ivIFh6wl5bEpDP-11" edge="1">
                    <mxGeometry width="50" height="50" relative="1" as="geometry">
                        <mxPoint x="4876.77" y="-536.16" as="sourcePoint"/>
                        <mxPoint x="4901.77" y="-585.16" as="targetPoint"/>
                    </mxGeometry>
                </mxCell>
                <mxCell id="mbZG72ivIFh6wl5bEpDP-14" value="&lt;br&gt;STUTTERED_STREAM:&lt;br style=&quot;font-size: 17px&quot;&gt;&#9;&lt;blockquote style=&quot;margin: 0px 0px 0px 40px ; border: none ; padding: 0px ; font-size: 17px&quot;&gt;&lt;font color=&quot;#0000ff&quot; style=&quot;font-size: 17px&quot;&gt;START_IDX: 0&lt;br style=&quot;font-size: 17px&quot;&gt;STATE: STUT&lt;br style=&quot;font-size: 17px&quot;&gt;X_MODIFY: +1&lt;br style=&quot;font-size: 17px&quot;&gt;X_COUNT: 3&lt;/font&gt;&lt;/blockquote&gt;&lt;blockquote style=&quot;margin: 0px 0px 0px 40px ; border: none ; padding: 0px ; font-size: 17px&quot;&gt;&lt;span style=&quot;color: rgb(0 , 0 , 255)&quot;&gt;Y_COUNT: 2&lt;/span&gt;&lt;font color=&quot;#0000ff&quot; style=&quot;font-size: 17px&quot;&gt;&lt;br&gt;&lt;/font&gt;&lt;/blockquote&gt;&lt;blockquote style=&quot;margin: 0px 0px 0px 40px ; border: none ; padding: 0px ; font-size: 17px&quot;&gt;&lt;span style=&quot;color: rgb(0 , 0 , 255)&quot;&gt;REPEAT: 10&lt;/span&gt;&lt;/blockquote&gt;&lt;font color=&quot;#0000ff&quot; style=&quot;font-size: 17px&quot;&gt;&lt;span style=&quot;font-size: 17px&quot;&gt;&#9;&lt;/span&gt;&lt;br style=&quot;font-size: 17px&quot;&gt;&lt;/font&gt;&lt;span style=&quot;font-size: 17px&quot;&gt;&#9;&lt;/span&gt;" style="text;html=1;strokeColor=default;fillColor=none;spacing=5;spacingTop=-20;whiteSpace=wrap;overflow=hidden;rounded=0;sketch=0;fontSize=17;" parent="1" vertex="1">
                    <mxGeometry x="4800" y="-767.0000000000001" width="222.54" height="160" as="geometry"/>
                </mxCell>
                <mxCell id="mbZG72ivIFh6wl5bEpDP-15" value="0" style="rounded=0;whiteSpace=wrap;html=1;fontSize=15;strokeWidth=2;fontStyle=1;fillColor=#d5e8d4;strokeColor=#000000;" parent="1" vertex="1">
                    <mxGeometry x="4896.173052788104" y="-363.7855735595674" width="32.11301115241625" height="26.376100679506248" as="geometry"/>
                </mxCell>
                <mxCell id="mbZG72ivIFh6wl5bEpDP-16" style="edgeStyle=orthogonalEdgeStyle;curved=1;orthogonalLoop=1;jettySize=auto;html=1;entryX=1;entryY=0.5;entryDx=0;entryDy=0;fontSize=12;endSize=1;strokeWidth=2;" parent="1" edge="1">
                    <mxGeometry relative="1" as="geometry">
                        <mxPoint x="4928.286063940518" y="-350.6419718339225" as="sourcePoint"/>
                        <mxPoint x="4928.286063940518" y="-324.24779864098764" as="targetPoint"/>
                        <Array as="points">
                            <mxPoint x="4961.201900371746" y="-351.03272888102606"/>
                            <mxPoint x="4961.201900371746" y="-324.65662820151977"/>
                        </Array>
                    </mxGeometry>
                </mxCell>
                <mxCell id="mbZG72ivIFh6wl5bEpDP-17" value="1" style="rounded=0;whiteSpace=wrap;html=1;fontSize=15;strokeWidth=2;fontStyle=1;fillColor=#d5e8d4;strokeColor=#000000;" parent="1" vertex="1">
                    <mxGeometry x="4896.173052788104" y="-337.4094728800611" width="32.11301115241625" height="26.376100679506248" as="geometry"/>
                </mxCell>
                <mxCell id="mbZG72ivIFh6wl5bEpDP-18" value="2" style="rounded=0;whiteSpace=wrap;html=1;fontSize=15;strokeWidth=2;fontStyle=1;fillColor=#d5e8d4;strokeColor=#000000;" parent="1" vertex="1">
                    <mxGeometry x="4896.173052788104" y="-311.03337220055494" width="32.11301115241625" height="26.376100679506248" as="geometry"/>
                </mxCell>
                <mxCell id="mbZG72ivIFh6wl5bEpDP-19" value="3" style="rounded=0;whiteSpace=wrap;html=1;fontSize=15;strokeWidth=2;fontStyle=1;fillColor=#d5e8d4;strokeColor=#000000;" parent="1" vertex="1">
                    <mxGeometry x="4896.173052788104" y="-284.65727152104864" width="32.11301115241625" height="26.376100679506248" as="geometry"/>
                </mxCell>
                <mxCell id="mbZG72ivIFh6wl5bEpDP-20" value="5" style="rounded=0;whiteSpace=wrap;html=1;fontSize=15;strokeWidth=2;fontStyle=1;fillColor=#d5e8d4;strokeColor=#000000;" parent="1" vertex="1">
                    <mxGeometry x="4896.173052788104" y="-258.28117084154235" width="32.11301115241625" height="26.376100679506248" as="geometry"/>
                </mxCell>
                <mxCell id="mbZG72ivIFh6wl5bEpDP-21" value="6" style="rounded=0;whiteSpace=wrap;html=1;fontSize=15;strokeWidth=2;fontStyle=1;fillColor=#d5e8d4;strokeColor=#000000;" parent="1" vertex="1">
                    <mxGeometry x="4896.173052788104" y="-231.90507016203605" width="32.11301115241625" height="26.376100679506248" as="geometry"/>
                </mxCell>
                <mxCell id="mbZG72ivIFh6wl5bEpDP-22" value="7" style="rounded=0;whiteSpace=wrap;html=1;fontSize=15;strokeWidth=2;fontStyle=1;fillColor=#d5e8d4;strokeColor=#000000;" parent="1" vertex="1">
                    <mxGeometry x="4896.173052788104" y="-205.52896948252987" width="32.11301115241625" height="26.376100679506248" as="geometry"/>
                </mxCell>
                <mxCell id="mbZG72ivIFh6wl5bEpDP-23" value="8" style="rounded=0;whiteSpace=wrap;html=1;fontSize=15;strokeWidth=2;fontStyle=1;fillColor=#d5e8d4;strokeColor=#000000;" parent="1" vertex="1">
                    <mxGeometry x="4896.173052788104" y="-179.1528688030237" width="32.11301115241625" height="26.376100679506248" as="geometry"/>
                </mxCell>
                <mxCell id="mbZG72ivIFh6wl5bEpDP-24" style="edgeStyle=orthogonalEdgeStyle;curved=1;orthogonalLoop=1;jettySize=auto;html=1;entryX=0;entryY=0.5;entryDx=0;entryDy=0;fontSize=12;strokeWidth=2;endSize=1;" parent="1" edge="1">
                    <mxGeometry relative="1" as="geometry">
                        <mxPoint x="4871.28546914498" y="-365.5132081540751" as="sourcePoint"/>
                        <mxPoint x="4896.173052788102" y="-348.8962647259864" as="targetPoint"/>
                        <Array as="points">
                            <mxPoint x="4871.285469144981" y="-375.6811949660247"/>
                            <mxPoint x="4871.285469144981" y="-349.3050942865184"/>
                        </Array>
                    </mxGeometry>
                </mxCell>
                <mxCell id="mbZG72ivIFh6wl5bEpDP-25" style="edgeStyle=orthogonalEdgeStyle;curved=1;orthogonalLoop=1;jettySize=auto;html=1;entryX=0;entryY=0.5;entryDx=0;entryDy=0;fontSize=12;strokeWidth=2;endSize=1;" parent="1" edge="1">
                    <mxGeometry relative="1" as="geometry">
                        <mxPoint x="4896.173052788102" y="-322.525048509568" as="sourcePoint"/>
                        <mxPoint x="4896.173052788102" y="-296.13087531663405" as="targetPoint"/>
                        <Array as="points">
                            <mxPoint x="4871.285469144981" y="-322.91580555667247"/>
                            <mxPoint x="4871.285469144981" y="-296.5397048771662"/>
                        </Array>
                    </mxGeometry>
                </mxCell>
                <mxCell id="mbZG72ivIFh6wl5bEpDP-26" style="edgeStyle=orthogonalEdgeStyle;curved=1;orthogonalLoop=1;jettySize=auto;html=1;entryX=1;entryY=0.5;entryDx=0;entryDy=0;fontSize=12;endSize=1;strokeWidth=2;fontColor=#990000;strokeColor=#990000;" parent="1" edge="1">
                    <mxGeometry relative="1" as="geometry">
                        <mxPoint x="4928.286063940518" y="-297.87658242456973" as="sourcePoint"/>
                        <mxPoint x="4928.286063940518" y="-271.48240923163485" as="targetPoint"/>
                        <Array as="points">
                            <mxPoint x="4961.201900371746" y="-298.2673394716737"/>
                            <mxPoint x="4961.201900371746" y="-271.89123879216754"/>
                        </Array>
                    </mxGeometry>
                </mxCell>
                <mxCell id="mbZG72ivIFh6wl5bEpDP-27" style="edgeStyle=orthogonalEdgeStyle;curved=1;orthogonalLoop=1;jettySize=auto;html=1;entryX=0;entryY=0.5;entryDx=0;entryDy=0;fontSize=12;strokeWidth=2;endSize=1;" parent="1" edge="1">
                    <mxGeometry relative="1" as="geometry">
                        <mxPoint x="4896.173052788102" y="-271.50048174506355" as="sourcePoint"/>
                        <mxPoint x="4896.173052788102" y="-245.10630855212867" as="targetPoint"/>
                        <Array as="points">
                            <mxPoint x="4871.285469144981" y="-271.89123879216754"/>
                            <mxPoint x="4871.285469144981" y="-245.51513811266136"/>
                        </Array>
                    </mxGeometry>
                </mxCell>
                <mxCell id="mbZG72ivIFh6wl5bEpDP-28" style="edgeStyle=orthogonalEdgeStyle;curved=1;orthogonalLoop=1;jettySize=auto;html=1;entryX=0;entryY=0.5;entryDx=0;entryDy=0;fontSize=12;strokeWidth=2;endSize=1;" parent="1" edge="1">
                    <mxGeometry relative="1" as="geometry">
                        <mxPoint x="4896.173052788102" y="-218.73509233571167" as="sourcePoint"/>
                        <mxPoint x="4896.173052788102" y="-192.34091914277678" as="targetPoint"/>
                        <Array as="points">
                            <mxPoint x="4871.285469144981" y="-219.1258493828152"/>
                            <mxPoint x="4871.285469144981" y="-192.74974870330902"/>
                        </Array>
                    </mxGeometry>
                </mxCell>
                <mxCell id="mbZG72ivIFh6wl5bEpDP-29" style="edgeStyle=orthogonalEdgeStyle;curved=1;orthogonalLoop=1;jettySize=auto;html=1;entryX=1;entryY=0.5;entryDx=0;entryDy=0;fontSize=12;endSize=1;strokeWidth=2;" parent="1" edge="1">
                    <mxGeometry relative="1" as="geometry">
                        <mxPoint x="4928.286063940518" y="-245.13756911589735" as="sourcePoint"/>
                        <mxPoint x="4928.286063940518" y="-218.74339592296246" as="targetPoint"/>
                        <Array as="points">
                            <mxPoint x="4961.201900371746" y="-245.5283261630011"/>
                            <mxPoint x="4961.201900371746" y="-219.1522254834947"/>
                        </Array>
                    </mxGeometry>
                </mxCell>
                <mxCell id="mbZG72ivIFh6wl5bEpDP-30" value="t=0" style="text;html=1;align=center;verticalAlign=middle;resizable=0;points=[];autosize=1;strokeColor=none;fillColor=none;fontSize=15;fontStyle=1" parent="1" vertex="1">
                    <mxGeometry x="4826.693350185874" y="-377" width="40" height="20" as="geometry"/>
                </mxCell>
                <mxCell id="mbZG72ivIFh6wl5bEpDP-31" value="t=1" style="text;html=1;align=center;verticalAlign=middle;resizable=0;points=[];autosize=1;strokeColor=none;fillColor=none;fontSize=15;fontStyle=1" parent="1" vertex="1">
                    <mxGeometry x="4960.84223048327" y="-350.6238993204938" width="40" height="20" as="geometry"/>
                </mxCell>
                <mxCell id="mbZG72ivIFh6wl5bEpDP-32" value="t=2" style="text;html=1;align=center;verticalAlign=middle;resizable=0;points=[];autosize=1;strokeColor=none;fillColor=none;fontSize=15;fontStyle=1" parent="1" vertex="1">
                    <mxGeometry x="4826.693350185874" y="-322.52016404648" width="40" height="20" as="geometry"/>
                </mxCell>
                <mxCell id="mbZG72ivIFh6wl5bEpDP-33" value="t=6" style="text;html=1;align=center;verticalAlign=middle;resizable=0;points=[];autosize=1;strokeColor=none;fillColor=none;fontSize=15;fontStyle=1" parent="1" vertex="1">
                    <mxGeometry x="4826.693350185874" y="-271.49559728197494" width="40" height="20" as="geometry"/>
                </mxCell>
                <mxCell id="mbZG72ivIFh6wl5bEpDP-34" value="t=8" style="text;html=1;align=center;verticalAlign=middle;resizable=0;points=[];autosize=1;strokeColor=none;fillColor=none;fontSize=15;fontStyle=1" parent="1" vertex="1">
                    <mxGeometry x="4826.693350185874" y="-218.74339592296246" width="40" height="20" as="geometry"/>
                </mxCell>
                <mxCell id="mbZG72ivIFh6wl5bEpDP-36" value="t=5" style="text;html=1;align=center;verticalAlign=middle;resizable=0;points=[];autosize=1;strokeColor=none;fillColor=none;fontSize=15;fontColor=#990000;fontStyle=1" parent="1" vertex="1">
                    <mxGeometry x="4960.84223048327" y="-297.87169796148123" width="40" height="20" as="geometry"/>
                </mxCell>
                <mxCell id="mbZG72ivIFh6wl5bEpDP-37" value="t=7" style="text;html=1;align=center;verticalAlign=middle;resizable=0;points=[];autosize=1;strokeColor=none;fillColor=none;fontSize=15;fontStyle=1" parent="1" vertex="1">
                    <mxGeometry x="4960.84223048327" y="-245.11949660246864" width="40" height="20" as="geometry"/>
                </mxCell>
                <mxCell id="mbZG72ivIFh6wl5bEpDP-38" style="edgeStyle=orthogonalEdgeStyle;curved=1;orthogonalLoop=1;jettySize=auto;html=1;entryX=1;entryY=0.5;entryDx=0;entryDy=0;fontSize=12;endSize=1;strokeWidth=2;fontColor=#990000;strokeColor=#990000;" parent="1" edge="1">
                    <mxGeometry relative="1" as="geometry">
                        <mxPoint x="4928.286063940518" y="-192.372179706545" as="sourcePoint"/>
                        <mxPoint x="4928.286063940518" y="-165.97800651361013" as="targetPoint"/>
                        <Array as="points">
                            <mxPoint x="4961.201900371746" y="-192.76293675364877"/>
                            <mxPoint x="4961.201900371746" y="-166.38683607414248"/>
                        </Array>
                    </mxGeometry>
                </mxCell>
                <mxCell id="mbZG72ivIFh6wl5bEpDP-39" value="t=10" style="text;html=1;align=center;verticalAlign=middle;resizable=0;points=[];autosize=1;strokeColor=none;fillColor=none;fontSize=15;fontColor=#990000;fontStyle=1" parent="1" vertex="1">
                    <mxGeometry x="4955.843977695166" y="-192.36729524345617" width="50" height="20" as="geometry"/>
                </mxCell>
                <mxCell id="mbZG72ivIFh6wl5bEpDP-40" style="edgeStyle=orthogonalEdgeStyle;curved=1;orthogonalLoop=1;jettySize=auto;html=1;fontSize=12;strokeWidth=2;endSize=1;" parent="1" edge="1">
                    <mxGeometry relative="1" as="geometry">
                        <mxPoint x="4896.173052788102" y="-165.9828909766993" as="sourcePoint"/>
                        <mxPoint x="4871.28546914498" y="-141.31635237827186" as="targetPoint"/>
                        <Array as="points">
                            <mxPoint x="4871.285469144981" y="-166.37364802380273"/>
                        </Array>
                    </mxGeometry>
                </mxCell>
                <mxCell id="2" value="SRAM Contents" style="text;html=1;align=center;verticalAlign=middle;resizable=0;points=[];autosize=1;strokeColor=none;fillColor=none;fontSize=15;fontStyle=1" parent="1" vertex="1">
                    <mxGeometry x="4847.226770721205" y="-410" width="130" height="20" as="geometry"/>
                </mxCell>
                <mxCell id="3" value="" style="endArrow=none;dashed=1;html=1;fontSize=15;endSize=1;strokeWidth=2;curved=1;" edge="1" parent="1">
                    <mxGeometry width="50" height="50" relative="1" as="geometry">
                        <mxPoint x="4911.82240043057" y="-75.52886574725565" as="sourcePoint"/>
                        <mxPoint x="4911.82240043057" y="-150.0035551445458" as="targetPoint"/>
                    </mxGeometry>
                </mxCell>
                <mxCell id="4" value="X-1" style="rounded=0;whiteSpace=wrap;html=1;fontSize=15;strokeWidth=2;fontStyle=1;fillColor=#d5e8d4;strokeColor=#000000;" vertex="1" parent="1">
                    <mxGeometry x="4897.95480086114" y="-77.15489646576341" width="27.987082884822392" height="24.824896465763338" as="geometry"/>
                </mxCell>
                <mxCell id="5" style="edgeStyle=orthogonalEdgeStyle;curved=1;orthogonalLoop=1;jettySize=auto;html=1;fontSize=12;strokeWidth=2;endSize=1;entryX=0;entryY=0.5;entryDx=0;entryDy=0;" edge="1" parent="1" target="4">
                    <mxGeometry relative="1" as="geometry">
                        <mxPoint x="4876.264811625404" y="-89.5673446986448" as="sourcePoint"/>
                        <mxPoint x="1043.8320882669536" y="467.6700000000001" as="targetPoint"/>
                        <Array as="points">
                            <mxPoint x="4876.264811625404" y="-64.74244823288157"/>
                        </Array>
                    </mxGeometry>
                </mxCell>
                <mxCell id="6" value="t=X-1" style="text;html=1;align=center;verticalAlign=middle;resizable=0;points=[];autosize=1;strokeColor=none;fillColor=none;fontSize=15;fontStyle=1" vertex="1" parent="1">
                    <mxGeometry x="4826.6900000000005" y="-101.97979293152665" width="50" height="20" as="geometry"/>
                </mxCell>
            </root>
        </mxGraphModel>
    </diagram>
</mxfile>